<svg width="81" height="82" viewBox="0 0 81 82" fill="none" xmlns="http://www.w3.org/2000/svg">
<g filter="url(#filter0_d_345_4715)">
<g clip-path="url(#clip0_345_4715)">
<rect x="4" width="73" height="74" rx="28" fill="white"/>
<path d="M40.6091 5.64001C43.0145 5.64001 44.9578 7.39175 44.9578 9.56001V13.9333C45.1753 13.9578 45.3791 13.9823 45.5965 14.019C45.6509 14.0313 45.6917 14.0313 45.746 14.0435L52.2692 15.1215C54.6338 15.5135 56.1966 17.5593 55.7617 19.6785C55.3269 21.7978 53.0574 23.2188 50.7063 22.8268L44.2512 21.761C39.9975 21.1975 36.2467 21.5773 33.6103 22.5205C30.9739 23.4638 29.9139 24.7623 29.6692 25.9628C29.3974 27.2735 29.6013 28.0085 29.8323 28.4618C30.0769 28.9395 30.5798 29.4785 31.5718 30.0788C33.787 31.3895 37.1844 32.247 41.5875 33.3005L41.9816 33.3985C45.8683 34.3295 50.6248 35.4565 54.1581 37.539C56.0879 38.6783 57.9089 40.2218 59.0369 42.3778C60.192 44.5705 60.4366 47.0205 59.9066 49.6298C58.9689 54.2848 55.4084 57.3963 50.9917 59.0255C49.1299 59.7115 47.105 60.1525 44.9578 60.373V64.44C44.9578 66.6083 43.0145 68.36 40.6091 68.36C38.2037 68.36 36.2603 66.6083 36.2603 64.44V60.1647C36.206 60.1525 36.138 60.1525 36.0836 60.1402H36.0565C32.7405 59.6747 27.291 58.3885 23.6218 56.9185C21.4338 56.0365 20.4417 53.7213 21.4202 51.749C22.3987 49.7768 24.9671 48.8825 27.1551 49.7645C29.9954 50.9038 34.6703 52.0308 37.3747 52.4105C41.7098 52.9863 45.284 52.6555 47.703 51.7613C49.9996 50.916 51.0461 49.691 51.345 48.221C51.6032 46.9225 51.3994 46.1753 51.1684 45.722C50.9102 45.232 50.4073 44.693 49.4017 44.0928C47.173 42.782 43.7619 41.9245 39.3452 40.871L38.9647 40.7853C35.0916 39.8543 30.3351 38.715 26.8018 36.6325C24.872 35.4933 23.0646 33.9375 21.9366 31.7815C20.7951 29.5888 20.564 27.1388 21.1076 24.5295C22.0861 19.85 25.9728 16.812 30.3895 15.2318C32.1969 14.5825 34.1811 14.1415 36.2603 13.8843V9.56001C36.2603 7.39175 38.2037 5.64001 40.6091 5.64001Z" fill="#2C2D5B"/>
</g>
</g>
<defs>
<filter id="filter0_d_345_4715" x="0" y="0" width="81" height="82" filterUnits="userSpaceOnUse" color-interpolation-filters="sRGB">
<feFlood flood-opacity="0" result="BackgroundImageFix"/>
<feColorMatrix in="SourceAlpha" type="matrix" values="0 0 0 0 0 0 0 0 0 0 0 0 0 0 0 0 0 0 127 0" result="hardAlpha"/>
<feOffset dy="4"/>
<feGaussianBlur stdDeviation="2"/>
<feComposite in2="hardAlpha" operator="out"/>
<feColorMatrix type="matrix" values="0 0 0 0 0 0 0 0 0 0 0 0 0 0 0 0 0 0 0.25 0"/>
<feBlend mode="normal" in2="BackgroundImageFix" result="effect1_dropShadow_345_4715"/>
<feBlend mode="normal" in="SourceGraphic" in2="effect1_dropShadow_345_4715" result="shape"/>
</filter>
<clipPath id="clip0_345_4715">
<rect x="4" width="73" height="74" rx="28" fill="white"/>
</clipPath>
</defs>
</svg>
