<svg width="105" height="90" viewBox="0 0 105 90" fill="none" xmlns="http://www.w3.org/2000/svg">
<g filter="url(#filter0_d_145_4686)">
<path d="M57.6562 47.0469C57.6562 48.9367 56.1242 50.4688 54.2344 50.4688H44.5312C43.7188 50.4688 43.0468 50.7344 42.5156 51.2656C41.9844 51.7968 41.7188 52.4688 41.7188 53.2812C41.7188 54.0937 41.9844 54.7657 42.5156 55.2969C43.0468 55.8281 43.7188 56.0938 44.5312 56.0938H48.5625C49.3391 56.0938 49.9687 56.7233 49.9687 57.5V57.5C49.9687 58.3124 50.2344 58.9844 50.7656 59.5156C51.2968 60.0468 51.9688 60.3125 52.7812 60.3125C53.5937 60.3125 54.2657 60.0468 54.7969 59.5156C55.3281 58.9844 55.5937 58.3124 55.5937 57.5V57.5C55.5937 56.7233 56.2233 56.0938 57 56.0938H60.0937C61.0312 56.0938 61.7968 55.7343 62.3906 55.0156C62.9844 54.2969 63.2812 53.4374 63.2812 52.4375V41.6563C63.2812 40.6563 62.9844 39.7968 62.3906 39.0781C61.7968 38.3594 61.0312 38 60.0937 38H50.5781C48.7918 38 47.3438 36.5519 47.3438 34.7656V34.7656C47.3438 32.9793 48.7918 31.5313 50.5781 31.5313H60.4687C61.2812 31.5313 61.9532 31.2656 62.4844 30.7344C63.0156 30.2032 63.2812 29.5312 63.2812 28.7188C63.2812 27.9063 63.0156 27.2343 62.4844 26.7031C61.9532 26.1719 61.2812 25.9062 60.4687 25.9062H57C56.2233 25.9062 55.5937 25.2767 55.5937 24.5V24.5C55.5937 23.6876 55.3281 23.0156 54.7969 22.4844C54.2657 21.9532 53.5937 21.6875 52.7812 21.6875C51.9688 21.6875 51.2968 21.9532 50.7656 22.4844C50.2344 23.0156 49.9687 23.6876 49.9687 24.5V24.5C49.9687 25.2767 49.3391 25.9062 48.5625 25.9062H45.375C44.3124 25.9062 43.4376 26.2657 42.75 26.9844C42.0624 27.7031 41.7188 28.5937 41.7188 29.6563V40.3438C41.7188 41.2813 42.0782 42.0626 42.7969 42.6875C43.5156 43.3124 44.3751 43.625 45.375 43.625H54.2344C56.1242 43.625 57.6562 45.157 57.6562 47.0469V47.0469ZM20.625 71C19.125 71 17.8125 70.4375 16.6875 69.3125C15.5625 68.1875 15 66.875 15 65.375V16.625C15 15.125 15.5625 13.8125 16.6875 12.6875C17.8125 11.5625 19.125 11 20.625 11H84.375C85.875 11 87.1875 11.5625 88.3125 12.6875C89.4375 13.8125 90 15.125 90 16.625V65.375C90 66.875 89.4375 68.1875 88.3125 69.3125C87.1875 70.4375 85.875 71 84.375 71H20.625Z" fill="#2C2D5B"/>
</g>
<defs>
<filter id="filter0_d_145_4686" x="0" y="0" width="105" height="90" filterUnits="userSpaceOnUse" color-interpolation-filters="sRGB">
<feFlood flood-opacity="0" result="BackgroundImageFix"/>
<feColorMatrix in="SourceAlpha" type="matrix" values="0 0 0 0 0 0 0 0 0 0 0 0 0 0 0 0 0 0 127 0" result="hardAlpha"/>
<feOffset dy="4"/>
<feGaussianBlur stdDeviation="7.5"/>
<feComposite in2="hardAlpha" operator="out"/>
<feColorMatrix type="matrix" values="0 0 0 0 0 0 0 0 0 0 0 0 0 0 0 0 0 0 0.25 0"/>
<feBlend mode="normal" in2="BackgroundImageFix" result="effect1_dropShadow_145_4686"/>
<feBlend mode="normal" in="SourceGraphic" in2="effect1_dropShadow_145_4686" result="shape"/>
</filter>
</defs>
</svg>
