<svg width="83" height="83" viewBox="0 0 83 83" fill="none" xmlns="http://www.w3.org/2000/svg">
<g filter="url(#filter0_d_145_4681)">
<rect x="4" width="75" height="75" rx="31" fill="white"/>
<path d="M39.0494 47.3608L33.584 41.6707C33.1347 41.1716 32.5858 40.922 31.9368 40.922C31.288 40.922 30.714 41.1466 30.2148 41.5959C29.7157 42.0949 29.4661 42.669 29.4661 43.3179C29.4661 43.9667 29.7157 44.5408 30.2148 45.0399L37.4772 52.2274C37.9264 52.6766 38.4505 52.9012 39.0494 52.9012C39.6484 52.9012 40.1725 52.6766 40.6217 52.2274L54.3229 38.6011C54.7721 38.1518 54.9967 37.6028 54.9967 36.9539C54.9967 36.3051 54.7472 35.756 54.248 35.3068C53.7988 34.9074 53.2623 34.7203 52.6383 34.7453C52.0145 34.7703 51.5028 34.9823 51.1035 35.3817L39.0494 47.3608ZM31.1881 73.4904L26.5462 65.5542L17.2624 63.6824C16.7133 63.5826 16.2516 63.2831 15.8773 62.784C15.5029 62.2849 15.3657 61.7608 15.4655 61.2117L16.5137 52.2274L10.599 45.3393C10.1996 44.94 10 44.4409 10 43.842C10 43.243 10.1996 42.7439 10.599 42.3446L16.5137 35.5314L15.4655 26.547C15.3657 25.9979 15.5029 25.4738 15.8773 24.9748C16.2516 24.4757 16.7133 24.1762 17.2624 24.0763L26.5462 22.2046L31.1881 14.1935C31.4876 13.6944 31.912 13.345 32.4609 13.1453C33.01 12.9457 33.5591 12.9706 34.108 13.2202L42.2688 17.0386L50.4297 13.2202C50.9788 12.9706 51.5278 12.9332 52.0768 13.1079C52.6259 13.2826 53.0501 13.6195 53.3496 14.1186L58.0664 22.2046L67.2754 24.0763C67.8245 24.1762 68.2861 24.4757 68.6605 24.9748C69.0348 25.4738 69.1721 25.9979 69.0722 26.547L68.0241 35.5314L73.9388 42.3446C74.3381 42.7439 74.5377 43.243 74.5377 43.842C74.5377 44.4409 74.3381 44.94 73.9388 45.3393L68.0241 52.2274L69.0722 61.2117C69.1721 61.7608 69.0348 62.2849 68.6605 62.784C68.2861 63.2831 67.8245 63.5826 67.2754 63.6824L58.0664 65.5542L53.3496 73.5653C53.0501 74.0643 52.6259 74.4013 52.0768 74.576C51.5278 74.7507 50.9788 74.7133 50.4297 74.4637L42.2688 70.6453L34.108 74.4637C33.5591 74.7133 33.01 74.7382 32.4609 74.5386C31.912 74.339 31.4876 73.9895 31.1881 73.4904Z" fill="#2C2D5B"/>
</g>
<defs>
<filter id="filter0_d_145_4681" x="0" y="0" width="83" height="83" filterUnits="userSpaceOnUse" color-interpolation-filters="sRGB">
<feFlood flood-opacity="0" result="BackgroundImageFix"/>
<feColorMatrix in="SourceAlpha" type="matrix" values="0 0 0 0 0 0 0 0 0 0 0 0 0 0 0 0 0 0 127 0" result="hardAlpha"/>
<feOffset dy="4"/>
<feGaussianBlur stdDeviation="2"/>
<feComposite in2="hardAlpha" operator="out"/>
<feColorMatrix type="matrix" values="0 0 0 0 0 0 0 0 0 0 0 0 0 0 0 0 0 0 0.25 0"/>
<feBlend mode="normal" in2="BackgroundImageFix" result="effect1_dropShadow_145_4681"/>
<feBlend mode="normal" in="SourceGraphic" in2="effect1_dropShadow_145_4681" result="shape"/>
</filter>
</defs>
</svg>
