<svg width="521" height="842" viewBox="0 0 521 842" fill="none" xmlns="http://www.w3.org/2000/svg">
<path d="M514.5 312.783C514.5 580.788 292.667 798.066 19 798.066C-254.667 798.066 -476.5 580.788 -476.5 312.783C-476.5 44.7784 -254.667 -172.5 19 -172.5C292.667 -172.5 514.5 44.7784 514.5 312.783Z" stroke="#BCBDED" stroke-opacity="0.5"/>
<g filter="url(#filter0_d_92_4657)">
<rect x="38.9277" y="751.94" width="66.4286" height="65.0602" rx="32.5301" fill="white"/>
</g>
<path d="M58.8561 793.145H85.4275V796.036H58.8561V793.145ZM86.1789 779.449C85.9798 778.863 85.5513 778.379 84.9876 778.102C84.424 777.826 83.7714 777.78 83.1734 777.975L76.5704 780.133L64.7608 775.795L61.8085 777.241L70.6656 783.024L64.7608 785.916L58.8561 783.024L57.3799 784.47L63.2846 790.253L84.7588 782.366C85.3349 782.154 85.8048 781.732 86.0696 781.188C86.3345 780.644 86.3736 780.02 86.1789 779.449V779.449Z" fill="#2C2D5B"/>
<g filter="url(#filter1_d_92_4657)">
<rect x="428.643" y="67.7229" width="66.4286" height="65.0602" rx="32.5301" fill="white"/>
</g>
<path d="M445.25 93.747H459.643L460.75 95.9157H446.357L445.25 93.747ZM446.726 98.0843H461.119L462.226 100.253H447.833L446.726 98.0843ZM470.714 109.651C471.94 109.651 472.929 108.682 472.929 107.482C472.929 106.282 471.94 105.313 470.714 105.313C469.489 105.313 468.5 106.282 468.5 107.482C468.5 108.682 469.489 109.651 470.714 109.651ZM472.929 96.6385H469.238V100.253H475.822L472.929 96.6385ZM455.952 109.651C457.178 109.651 458.167 108.682 458.167 107.482C458.167 106.282 457.178 105.313 455.952 105.313C454.727 105.313 453.738 106.282 453.738 107.482C453.738 108.682 454.727 109.651 455.952 109.651ZM473.667 94.4699L478.095 100.253V107.482H475.143C475.143 109.882 473.165 111.819 470.714 111.819C468.264 111.819 466.286 109.882 466.286 107.482H460.381C460.381 109.882 458.388 111.819 455.952 111.819C453.502 111.819 451.524 109.882 451.524 107.482H448.571V102.422H451.524V104.59H452.646C453.458 103.708 454.639 103.145 455.952 103.145C457.266 103.145 458.447 103.708 459.259 104.59H466.286V91.5783H448.571C448.571 89.9735 449.885 88.6867 451.524 88.6867H469.238V94.4699H473.667Z" fill="#2C2D5B"/>
<rect x="-81" y="182" width="200" height="5" rx="2.5" fill="#FFA59D" fill-opacity="0.2"/>
<rect x="-81" y="207" width="130" height="5" rx="2.5" fill="#FFA59D" fill-opacity="0.2"/>
<rect x="-81" y="232" width="200" height="5" rx="2.5" fill="#FFA59D" fill-opacity="0.2"/>
<rect x="-81" y="257" width="150" height="5" rx="2.5" fill="#FFA59D" fill-opacity="0.2"/>
<rect x="-81" y="282" width="200" height="5" rx="2.5" fill="#FFA59D" fill-opacity="0.2"/>
<defs>
<filter id="filter0_d_92_4657" x="13.9277" y="726.94" width="116.429" height="115.06" filterUnits="userSpaceOnUse" color-interpolation-filters="sRGB">
<feFlood flood-opacity="0" result="BackgroundImageFix"/>
<feColorMatrix in="SourceAlpha" type="matrix" values="0 0 0 0 0 0 0 0 0 0 0 0 0 0 0 0 0 0 127 0" result="hardAlpha"/>
<feOffset/>
<feGaussianBlur stdDeviation="12.5"/>
<feComposite in2="hardAlpha" operator="out"/>
<feColorMatrix type="matrix" values="0 0 0 0 0.592 0 0 0 0 0.592 0 0 0 0 0.592 0 0 0 0.25 0"/>
<feBlend mode="normal" in2="BackgroundImageFix" result="effect1_dropShadow_92_4657"/>
<feBlend mode="normal" in="SourceGraphic" in2="effect1_dropShadow_92_4657" result="shape"/>
</filter>
<filter id="filter1_d_92_4657" x="403.643" y="42.7229" width="116.429" height="115.06" filterUnits="userSpaceOnUse" color-interpolation-filters="sRGB">
<feFlood flood-opacity="0" result="BackgroundImageFix"/>
<feColorMatrix in="SourceAlpha" type="matrix" values="0 0 0 0 0 0 0 0 0 0 0 0 0 0 0 0 0 0 127 0" result="hardAlpha"/>
<feOffset/>
<feGaussianBlur stdDeviation="12.5"/>
<feComposite in2="hardAlpha" operator="out"/>
<feColorMatrix type="matrix" values="0 0 0 0 0.592 0 0 0 0 0.592 0 0 0 0 0.592 0 0 0 0.25 0"/>
<feBlend mode="normal" in2="BackgroundImageFix" result="effect1_dropShadow_92_4657"/>
<feBlend mode="normal" in="SourceGraphic" in2="effect1_dropShadow_92_4657" result="shape"/>
</filter>
</defs>
</svg>
