<svg width="50" height="50" viewBox="0 0 50 50" fill="none" xmlns="http://www.w3.org/2000/svg">
<rect width="50" height="50" rx="25" fill="#2C2D5B"/>
<path d="M19.3351 21.984C19.4551 21.152 19.6871 20.424 20.0311 19.8C20.3751 19.168 20.8031 18.644 21.3151 18.228C21.8351 17.804 22.4271 17.488 23.0911 17.28C23.7631 17.064 24.4831 16.956 25.2511 16.956C26.0511 16.956 26.7711 17.072 27.4111 17.304C28.0591 17.528 28.6111 17.844 29.0671 18.252C29.5231 18.652 29.8711 19.124 30.1111 19.668C30.3591 20.212 30.4831 20.8 30.4831 21.432C30.4831 21.984 30.4191 22.472 30.2911 22.896C30.1711 23.312 29.9951 23.676 29.7631 23.988C29.5311 24.3 29.2431 24.564 28.8991 24.78C28.5551 24.996 28.1671 25.176 27.7351 25.32C28.7751 25.648 29.5511 26.148 30.0631 26.82C30.5751 27.492 30.8311 28.336 30.8311 29.352C30.8311 30.216 30.6711 30.98 30.3511 31.644C30.0311 32.308 29.5991 32.868 29.0551 33.324C28.5111 33.772 27.8791 34.112 27.1591 34.344C26.4471 34.576 25.6911 34.692 24.8911 34.692C24.0191 34.692 23.2591 34.592 22.6111 34.392C21.9631 34.192 21.3991 33.896 20.9191 33.504C20.4391 33.112 20.0311 32.632 19.6951 32.064C19.3591 31.496 19.0711 30.84 18.8311 30.096L20.1391 29.556C20.4831 29.412 20.8031 29.376 21.0991 29.448C21.4031 29.512 21.6231 29.672 21.7591 29.928C21.9031 30.208 22.0591 30.484 22.2271 30.756C22.4031 31.028 22.6111 31.272 22.8511 31.488C23.0911 31.696 23.3711 31.868 23.6911 32.004C24.0191 32.132 24.4071 32.196 24.8551 32.196C25.3591 32.196 25.7991 32.116 26.1751 31.956C26.5511 31.788 26.8631 31.572 27.1111 31.308C27.3671 31.044 27.5551 30.752 27.6751 30.432C27.8031 30.104 27.8671 29.776 27.8671 29.448C27.8671 29.032 27.8231 28.656 27.7351 28.32C27.6471 27.976 27.4631 27.684 27.1831 27.444C26.9031 27.204 26.4991 27.016 25.9711 26.88C25.4511 26.744 24.7511 26.676 23.8711 26.676V24.564C24.5991 24.556 25.2031 24.488 25.6831 24.36C26.1631 24.232 26.5431 24.056 26.8231 23.832C27.1111 23.6 27.3111 23.324 27.4231 23.004C27.5351 22.684 27.5911 22.332 27.5911 21.948C27.5911 21.132 27.3631 20.512 26.9071 20.088C26.4511 19.664 25.8431 19.452 25.0831 19.452C24.7311 19.452 24.4071 19.504 24.1111 19.608C23.8151 19.704 23.5471 19.844 23.3071 20.028C23.0751 20.204 22.8791 20.412 22.7191 20.652C22.5591 20.892 22.4391 21.156 22.3591 21.444C22.2231 21.812 22.0431 22.056 21.8191 22.176C21.6031 22.296 21.2951 22.324 20.8951 22.26L19.3351 21.984Z" fill="white"/>
</svg>
