<svg width="50" height="50" viewBox="0 0 50 50" fill="none" xmlns="http://www.w3.org/2000/svg">
<rect width="50" height="50" rx="25" fill="#2C2D5B"/>
<path d="M29.8111 31.74C30.1311 31.74 30.3831 31.832 30.5671 32.016C30.7591 32.192 30.8551 32.428 30.8551 32.724V34.5H18.9511V33.516C18.9511 33.316 18.9911 33.108 19.0711 32.892C19.1591 32.668 19.2951 32.468 19.4791 32.292L24.7471 27.012C25.1871 26.564 25.5791 26.136 25.9231 25.728C26.2751 25.32 26.5671 24.916 26.7991 24.516C27.0311 24.116 27.2071 23.712 27.3271 23.304C27.4551 22.888 27.5191 22.452 27.5191 21.996C27.5191 21.58 27.4591 21.216 27.3391 20.904C27.2191 20.584 27.0471 20.316 26.8231 20.1C26.6071 19.884 26.3431 19.724 26.0311 19.62C25.7271 19.508 25.3831 19.452 24.9991 19.452C24.6471 19.452 24.3191 19.504 24.0151 19.608C23.7191 19.704 23.4551 19.844 23.2231 20.028C22.9911 20.204 22.7951 20.412 22.6351 20.652C22.4751 20.892 22.3551 21.156 22.2751 21.444C22.1391 21.812 21.9631 22.056 21.7471 22.176C21.5311 22.296 21.2191 22.324 20.8111 22.26L19.2511 21.984C19.3711 21.152 19.6031 20.424 19.9471 19.8C20.2911 19.168 20.7191 18.644 21.2311 18.228C21.7511 17.804 22.3431 17.488 23.0071 17.28C23.6791 17.064 24.3991 16.956 25.1671 16.956C25.9671 16.956 26.6991 17.076 27.3631 17.316C28.0271 17.548 28.5951 17.88 29.0671 18.312C29.5391 18.744 29.9071 19.264 30.1711 19.872C30.4351 20.48 30.5671 21.156 30.5671 21.9C30.5671 22.54 30.4711 23.132 30.2791 23.676C30.0951 24.22 29.8431 24.74 29.5231 25.236C29.2111 25.732 28.8431 26.212 28.4191 26.676C27.9951 27.14 27.5511 27.612 27.0871 28.092L23.1751 32.088C23.5511 31.976 23.9231 31.892 24.2911 31.836C24.6671 31.772 25.0231 31.74 25.3591 31.74H29.8111Z" fill="white"/>
</svg>
