<svg width="598" height="156" viewBox="0 0 598 156" fill="none" xmlns="http://www.w3.org/2000/svg">
<path d="M0 0L1.59789 5.54798L5.60364 1.39018L0 0ZM269.733 36.7059L269.535 36.247L269.733 36.7059ZM595 156L597.558 150.824L591.797 151.197L595 156ZM2.90018 3.4883C3.05544 3.63272 3.21173 3.7774 3.36904 3.92235L4.04665 3.18693C3.89049 3.04305 3.73535 2.89943 3.58124 2.75608L2.90018 3.4883ZM11.1939 10.6459C13.7464 12.7001 16.481 14.78 19.3913 16.8653L19.9737 16.0524C17.0782 13.9777 14.3585 11.9091 11.8208 9.86685L11.1939 10.6459ZM27.9336 22.6629C30.7388 24.4672 33.6723 26.2615 36.7298 28.0324L37.231 27.1671C34.1869 25.4039 31.2667 23.6177 28.4745 21.8218L27.9336 22.6629ZM45.7798 33.007C48.7577 34.5591 51.8341 36.0818 55.006 37.5651L55.4296 36.6592C52.2709 35.1821 49.2073 33.6658 46.242 32.1202L45.7798 33.007ZM64.44 41.7353C67.5649 43.0385 70.7701 44.2992 74.0532 45.5094L74.3991 44.5711C71.1293 43.3658 67.9371 42.1102 64.8249 40.8123L64.44 41.7353ZM83.7862 48.8691C87.0094 49.9073 90.2992 50.8942 93.6535 51.8231L93.9204 50.8593C90.5796 49.9342 87.303 48.9513 84.0928 47.9173L83.7862 48.8691ZM103.641 54.3669C106.947 55.1365 110.31 55.8478 113.728 56.4951L113.914 55.5126C110.51 54.8679 107.16 54.1594 103.867 53.3929L103.641 54.3669ZM123.896 58.2033C127.258 58.6966 130.669 59.1267 134.126 59.4883L134.23 58.4938C130.787 58.1335 127.39 57.7053 124.041 57.2139L123.896 58.2033ZM144.4 60.3487C147.792 60.5623 151.226 60.7089 154.699 60.7843L154.721 59.7846C151.261 59.7095 147.842 59.5634 144.463 59.3507L144.4 60.3487ZM165.006 60.797C168.404 60.7318 171.837 60.5975 175.303 60.3902L175.244 59.392C171.79 59.5984 168.371 59.7322 164.987 59.7972L165.006 60.797ZM185.574 59.569C188.954 59.2308 192.364 58.8223 195.803 58.3404L195.664 57.3501C192.238 57.8302 188.841 58.237 185.475 58.574L185.574 59.569ZM205.976 56.7126C209.319 56.1113 212.688 55.4397 216.081 54.6951L215.867 53.7183C212.486 54.4602 209.13 55.1293 205.799 55.7284L205.976 56.7126ZM226.107 52.298C229.399 51.4464 232.712 50.5254 236.046 49.5323L235.761 48.5739C232.438 49.5635 229.136 50.4813 225.857 51.3299L226.107 52.298ZM245.892 46.4088C249.101 45.3281 252.329 44.1801 255.575 42.9625L255.224 42.0262C251.989 43.2398 248.771 44.3841 245.572 45.4611L245.892 46.4088ZM265.143 39.1902C266.736 38.532 268.332 37.857 269.932 37.1648L269.535 36.247C267.94 36.937 266.349 37.6099 264.761 38.266L265.143 39.1902ZM269.932 37.1648C271.466 36.5012 273 35.852 274.533 35.2172L274.15 34.2933C272.612 34.9301 271.074 35.5813 269.535 36.247L269.932 37.1648ZM283.725 31.579C286.846 30.4003 289.964 29.2801 293.078 28.2172L292.754 27.2708C289.631 28.3372 286.503 29.461 283.372 30.6435L283.725 31.579ZM302.484 25.1751C305.667 24.2026 308.845 23.2892 312.015 22.4336L311.755 21.4681C308.574 22.3265 305.386 23.243 302.192 24.2187L302.484 25.1751ZM321.633 20.0096C324.861 19.2534 328.08 18.5564 331.29 17.9174L331.095 16.9366C327.874 17.5778 324.644 18.2772 321.405 19.036L321.633 20.0096ZM341.06 16.145C344.341 15.6076 347.611 15.1301 350.868 14.7112L350.74 13.7194C347.472 14.1397 344.191 14.6189 340.898 15.1581L341.06 16.145ZM360.691 13.6202C364.006 13.3102 367.305 13.0604 370.589 12.8692L370.531 11.8709C367.236 12.0627 363.924 12.3134 360.598 12.6245L360.691 13.6202ZM380.495 12.4677C383.811 12.3921 387.108 12.3759 390.386 12.4177L390.399 11.4178C387.109 11.3759 383.8 11.3921 380.472 11.468L380.495 12.4677ZM400.293 12.7216C403.616 12.8834 406.915 13.1045 410.191 13.3832L410.276 12.3868C406.988 12.107 403.676 11.8851 400.342 11.7228L400.293 12.7216ZM420.04 14.4022C423.331 14.8036 426.595 15.2632 429.829 15.7791L429.987 14.7916C426.74 14.2738 423.464 13.8125 420.161 13.4096L420.04 14.4022ZM439.603 17.5253C442.865 18.1712 446.095 18.8747 449.29 19.6337L449.521 18.6608C446.314 17.8989 443.072 17.1927 439.797 16.5443L439.603 17.5253ZM458.877 22.1049C462.073 22.9944 465.231 23.94 468.349 24.9394L468.655 23.9871C465.524 22.9837 462.354 22.0345 459.145 21.1415L458.877 22.1049ZM477.737 28.1538C480.864 29.2945 483.946 30.4901 486.981 31.7383L487.362 30.8134C484.314 29.5601 481.219 28.3596 478.079 27.2143L477.737 28.1538ZM496.063 35.6933C499.083 37.0838 502.05 38.5273 504.963 40.0212L505.419 39.1314C502.494 37.631 499.514 36.1813 496.481 34.785L496.063 35.6933ZM513.661 44.7245C516.557 46.3738 519.392 48.0743 522.162 49.8232L522.696 48.9776C519.913 47.2205 517.065 45.5122 514.156 43.8555L513.661 44.7245ZM530.418 55.3102C533.15 57.2211 535.81 59.1807 538.394 61.1859L539.007 60.3958C536.41 58.3803 533.737 56.4109 530.992 54.4908L530.418 55.3102ZM546.059 67.4547C548.583 69.6321 551.023 71.8552 553.374 74.1206L554.068 73.4003C551.703 71.1221 549.25 68.8866 546.712 66.6975L546.059 67.4547ZM560.299 81.187C562.562 83.636 564.725 86.1269 566.784 88.6557L567.56 88.0242C565.487 85.4789 563.31 82.9723 561.034 80.5084L560.299 81.187ZM572.774 96.5255C574.702 99.245 576.512 102.001 578.202 104.79L579.057 104.272C577.355 101.462 575.531 98.6857 573.589 95.9471L572.774 96.5255ZM582.996 113.435C584.494 116.407 585.855 119.409 587.075 122.436L588.002 122.063C586.772 119.009 585.399 115.982 583.889 112.985L582.996 113.435ZM590.353 131.754C591.309 134.929 592.108 138.123 592.744 141.333L593.725 141.139C593.082 137.896 592.275 134.67 591.31 131.466L590.353 131.754ZM594.17 151.098C594.184 151.249 594.198 151.401 594.212 151.553L595.208 151.465C595.194 151.311 595.18 151.158 595.166 151.004L594.17 151.098Z" fill="white"/>
</svg>
